<?xml version="1.0" encoding="UTF-8"?>
<svg id="Calque_1" data-name="Calque 1" xmlns="http://www.w3.org/2000/svg" viewBox="0 0 1500 1500">
  <defs>
    <style>
      .cls-1 {
        fill: #fff;
      }
    </style>
  </defs>
  <path class="cls-1" d="M681.87,135.99L666.98,0c-175.63,19.02-333.07,98.65-450.97,217.57l97.15,96.31c96.39-97.23,225.11-162.33,368.71-177.88Z"/>
  <path class="cls-1" d="M168.89,945.74l-129.34,44.66c56.46,163.52,167.87,301.39,312.17,391.58l72.4-116.09c-117.98-73.74-209.07-186.46-255.23-320.15Z"/>
  <path class="cls-1" d="M135.43,745.56c0-120.71,34.9-233.26,95.13-328.15l-115.58-73.21C41.31,460.26-1.37,597.92-1.37,745.56c0,29.38,1.75,58.35,5.03,86.85l135.89-15.84c-2.69-23.3-4.12-46.99-4.12-71.01Z"/>
  <path class="cls-1" d="M1281.24,217.57C1163.34,98.65,1005.91,19.02,830.28,0l-14.89,135.99c143.6,15.55,272.32,80.65,368.71,177.88l97.15-96.31Z"/>
  <path class="cls-1" d="M1217.13,907.33c11.51-33.33,19.54-68.27,23.71-104.39,2.17-18.83,3.33-37.97,3.33-57.38,0-97.55-28.21-188.5-76.88-265.18-19.22-30.28-41.62-58.32-66.75-83.67-77.9-78.57-181.92-131.19-297.96-143.75-17.72-1.92-35.71-2.93-53.95-2.93s-36.23,1.01-53.95,2.93c-116.04,12.57-220.07,65.18-297.96,143.75-25.13,25.35-47.54,53.4-66.76,83.67-48.67,76.68-76.88,167.64-76.88,265.18,0,19.41,1.15,38.55,3.33,57.38,4.17,36.12,12.21,71.06,23.71,104.39,37.3,108.04,110.91,199.14,206.26,258.72l128.66-206.29c-48.57-30.36-86.04-76.76-105.05-131.8-5.86-16.98-9.97-34.77-12.09-53.17-1.11-9.6-1.74-19.34-1.74-29.23,0-49.7,14.42-96.01,39.22-135.07,9.79-15.42,21.17-29.74,33.97-42.65,39.69-40.03,92.68-66.82,151.8-73.23,9.03-.98,18.19-1.52,27.48-1.52s18.45.54,27.48,1.52c59.12,6.4,112.11,33.2,151.8,73.23,12.8,12.91,24.18,27.23,33.97,42.65,24.8,39.07,39.22,85.37,39.22,135.07,0,9.89-.63,19.63-1.74,29.23-2.12,18.4-6.23,36.19-12.09,53.17-19,55.04-56.48,101.44-105.05,131.8l128.66,206.29c95.34-59.59,168.96-150.68,206.26-258.72Z"/>
  <path class="cls-1" d="M1382.27,344.21l-115.58,73.21c60.23,94.89,95.13,207.44,95.13,328.15,0,24.02-1.43,47.71-4.12,71.01l135.89,15.84c3.29-28.5,5.03-57.47,5.03-86.85,0-147.64-42.69-285.3-116.35-401.35Z"/>
  <path class="cls-1" d="M1073.14,1265.89l72.4,116.09c144.3-90.19,255.71-228.06,312.17-391.58l-129.34-44.66c-46.16,133.69-137.25,246.42-255.23,320.15Z"/>
</svg>